<svg width="512" height="512" viewBox="0 0 512 512" xmlns="http://www.w3.org/2000/svg">
  <defs>
    <linearGradient id="bg" x1="0" y1="0" x2="1" y2="1">
      <stop offset="0%" stop-color="#FF7A33" />
      <stop offset="55%" stop-color="#FF5A1F" />
      <stop offset="100%" stop-color="#C7400F" />
    </linearGradient>
  </defs>
  <rect width="512" height="512" rx="112" fill="url(#bg)" />
  <svg x="66" y="129" width="380" height="260" viewBox="0 0 152 104">
    <g fill="#FFF4EB">
      <path d="M 16 64 L 16 46 Q 16 33 31 33 L 53 33 Q 67 33 71 48 L 75 64 Z" />
      <path d="M 60 55 L 99 55 L 99 65 L 60 65 Z" />
      <path d="M 88 65 L 101 31 Q 103 25 110 26 Q 117 28 115 35 L 122 65 Z" />
    </g>
    <g stroke="#FFF4EB" stroke-width="10" stroke-linecap="round" stroke-linejoin="round" fill="none">
      <path d="M 110 30 L 120 18" />
      <path d="M 111 17 L 128 15" />
      <rect x="8" y="6" width="30" height="29" rx="6" />
      <line x1="11" y1="19" x2="35" y2="19" />
    </g>
    <circle cx="42" cy="78" r="17" stroke="#FFF4EB" stroke-width="10" fill="none" />
    <circle cx="112" cy="78" r="17" stroke="#FFF4EB" stroke-width="10" fill="none" />
  </svg>
</svg>
